<?xml version="1.0" encoding="utf-8"?>
<!-- Generator: Adobe Illustrator 19.0.0, SVG Export Plug-In . SVG Version: 6.00 Build 0)  -->
<svg version="1.1" id="Layer_1" xmlns="http://www.w3.org/2000/svg" xmlns:xlink="http://www.w3.org/1999/xlink" x="0px" y="0px"
	 width="90px" height="90px" viewBox="0 0 90 90" style="enable-background:new 0 0 90 90;" xml:space="preserve">
<style type="text/css">
	.st0{fill:#872B68;}
	.st1{fill:#FFFFFF;}
</style>
<circle class="st0" cx="45" cy="45" r="45"/>
<path class="st1" d="M69,32.9l-8.4-3.4l-3.3-5c-0.2-0.2-0.4-0.4-0.7-0.4v0h-19v0c-0.3,0-0.6,0.1-0.7,0.4l-3.3,5L25,32.9
	c-0.3,0.1-0.5,0.5-0.5,0.8v28.6c0,1.9,1.5,3.5,3.5,3.5H66c1.9,0,3.5-1.5,3.5-3.5V33.8C69.5,33.4,69.3,33.1,69,32.9z M58.8,30.1
	l-5.7,5l-4.7-4.7l7.8-4.3L58.8,30.1z M51,35.5l-2.6,2.6h-2.7L43,35.5l4-4L51,35.5z M53.1,26L47,29.3L40.9,26H53.1z M37.8,26.2
	l7.8,4.3l-4.7,4.7l-5.7-5L37.8,26.2z M28,64c-1,0-1.7-0.8-1.7-1.7v-28l7.6-3l6.5,5.7c0.2,0.1,0.4,0.2,0.6,0.2c0.2,0,0.4-0.1,0.6-0.3
	l0.3-0.3l2.6,2.6l-2.5,21.2c0,0.3,0.1,0.5,0.2,0.7l2.8,2.8H28z M43.6,60.3L46,39.8H48l2.5,20.5L47,63.7L43.6,60.3z M67.8,62.3
	c0,1-0.8,1.7-1.7,1.7H49.1l2.8-2.8c0.2-0.2,0.3-0.5,0.2-0.7l-2.5-21.2l2.6-2.6l0.3,0.3c0.2,0.2,0.4,0.3,0.6,0.3
	c0.2,0,0.4-0.1,0.6-0.2l6.5-5.7l7.6,3V62.3z M52.4,45.3c-0.2,0.2-0.3,0.4-0.3,0.6v3.5c0,0.2,0.1,0.4,0.3,0.6
	c0.2,0.2,0.4,0.3,0.6,0.3h12.1c0.2,0,0.4-0.1,0.6-0.3c0.2-0.2,0.3-0.4,0.3-0.6v-3.5c0-0.2-0.1-0.5-0.3-0.6c-0.2-0.2-0.4-0.3-0.6-0.3
	H53.1C52.8,45,52.6,45.1,52.4,45.3z M53.9,46.7h10.4v1.7H53.9V46.7z"/>
</svg>
