<?xml version="1.0" encoding="utf-8"?>
<!-- Generator: Adobe Illustrator 19.0.0, SVG Export Plug-In . SVG Version: 6.00 Build 0)  -->
<svg version="1.1" id="Layer_1" xmlns="http://www.w3.org/2000/svg" xmlns:xlink="http://www.w3.org/1999/xlink" x="0px" y="0px"
	 width="90px" height="90px" viewBox="0 0 90 90" style="enable-background:new 0 0 90 90;" xml:space="preserve">
<style type="text/css">
	.st0{fill:#C1CC55;}
	.st1{fill:#FFFFFF;}
</style>
<circle class="st0" cx="45" cy="45" r="45"/>
<g>
	<path class="st1" d="M73.8,45.4c-0.2-0.2-0.4-0.4-0.7-0.4h-8v-9.8c0-0.2-0.1-0.5-0.3-0.6c-0.2-0.2-0.4-0.3-0.6-0.3h-4.5v-0.9
		c0-0.2-0.1-0.5-0.3-0.6l-8.9-8.9c-0.2-0.2-0.4-0.3-0.6-0.3H30.2c-1.5,0-2.7,1.2-2.7,2.7v8h-2.7c-0.2,0-0.5,0.1-0.6,0.3
		c-0.2,0.2-0.3,0.4-0.3,0.6v27.7c0,2,1.6,3.6,3.6,3.6h37.5c2,0,3.7-1.3,4.2-3.2L74,46.1C74,45.9,74,45.6,73.8,45.4z M59.7,36.1h3.6
		V45h-3.6V36.1z M50.8,26.6l5.9,5.9h-5c-0.5,0-0.9-0.4-0.9-0.9L50.8,26.6z M29.4,26.3c0-0.5,0.4-0.9,0.9-0.9H49v6.3
		c0,1.5,1.2,2.7,2.7,2.7h6.3V45h-8v-1.8h3.6c0.5,0,0.9-0.4,0.9-0.9c0-0.5-0.4-0.9-0.9-0.9H33.8c-0.4,0-0.8,0.3-0.9,0.7l-3.6,16.5
		V26.3z M67.6,62.7c-0.3,1.1-1.3,1.9-2.5,1.9H27.6c-1,0-1.8-0.8-1.8-1.8V36.1h1.8V62c-0.5,0-0.9,0.4-0.9,0.9c0,0.5,0.4,0.9,0.9,0.9
		H28c1.2,0,2.2-0.8,2.5-2l4-18.5h13.6v2.7c0,0.2,0.1,0.5,0.3,0.6c0.2,0.2,0.4,0.3,0.6,0.3h22.9L67.6,62.7z M33.8,39.6h19.6
		c0.5,0,0.9-0.4,0.9-0.9c0-0.5-0.4-0.9-0.9-0.9H33.8c-0.5,0-0.9,0.4-0.9,0.9C32.9,39.2,33.3,39.6,33.8,39.6z"/>
</g>
</svg>
