<?xml version="1.0" encoding="utf-8"?>
<!-- Generator: Adobe Illustrator 19.0.0, SVG Export Plug-In . SVG Version: 6.00 Build 0)  -->
<svg version="1.1" id="Layer_1" xmlns="http://www.w3.org/2000/svg" xmlns:xlink="http://www.w3.org/1999/xlink" x="0px" y="0px"
	 width="60px" height="51.4px" viewBox="0 0 60 51.4" style="enable-background:new 0 0 60 51.4;" xml:space="preserve">
<style type="text/css">
	.st0{fill:#FFFFFF;}
</style>
<path class="st0" d="M59.7,19.6c-0.2-0.2-0.5-0.3-0.8-0.3H40.7v-8.6C40.7,4.8,35.9,0,30,0c-5.9,0-10.7,4.8-10.7,10.7v8.6H1.1
	c-0.3,0-0.6,0.1-0.8,0.3C0.1,19.8,0,20.1,0,20.4v4.3c0,0.3,0.1,0.6,0.3,0.8c0.2,0.2,0.5,0.3,0.8,0.3h3.2l0,24.6
	c0,0.3,0.1,0.6,0.3,0.8c0.2,0.2,0.5,0.3,0.8,0.3h2.1c0.3,0,0.6-0.1,0.8-0.3c0.2-0.2,0.3-0.5,0.3-0.8V25.7H15v9.6h0v0
	c0,0.3,0.1,0.6,0.3,0.8c0.2,0.2,0.5,0.3,0.8,0.3h6.5c0.5,2.4,2.7,4.3,5.2,4.3l1.1,0V45h-6.4c-3,0-5.4,2.4-5.4,5.4
	c0,0.6,0.5,1.1,1.1,1.1c0.6,0,1.1-0.5,1.1-1.1c0-1.8,1.4-3.2,3.2-3.2h6.4v3.2c0,0.6,0.5,1.1,1.1,1.1c0.6,0,1.1-0.5,1.1-1.1v-3.2h6.4
	c1.8,0,3.2,1.4,3.2,3.2c0,0.6,0.5,1.1,1.1,1.1c0.6,0,1.1-0.5,1.1-1.1h0c0-3-2.4-5.4-5.4-5.4h-6.4v-4.3h1.1c2.6,0,4.8-1.8,5.2-4.3
	h6.5c0.3,0,0.6-0.1,0.8-0.3c0.2-0.2,0.3-0.5,0.3-0.8v0h0v-9.6h6.4l0,24.6c0,0.3,0.1,0.6,0.3,0.8c0.2,0.2,0.5,0.3,0.8,0.3h2.1
	c0.3,0,0.6-0.1,0.8-0.3c0.2-0.2,0.3-0.5,0.3-0.8V25.7h3.2c0.3,0,0.6-0.1,0.8-0.3c0.2-0.2,0.3-0.5,0.3-0.8v-4.3
	C60,20.1,59.9,19.8,59.7,19.6z M21.4,10.7c0-4.7,3.8-8.6,8.6-8.6c4.7,0,8.6,3.8,8.6,8.6v8.6H21.4V10.7z M19.3,25.7v4.4
	c-0.8,0.2-1.5,0.5-2.1,1v-5.4H19.3z M38.6,30H21.4v-4.3h17.1V30z M32.1,38.6h-4.3c-1.4,0-2.6-0.9-3-2.1h10.3
	C34.7,37.7,33.5,38.6,32.1,38.6z M17.3,34.3c0.4-1.2,1.6-2.1,3-2.1h19.3c1.4,0,2.6,0.9,3,2.1H17.3z M42.9,31.1
	c-0.6-0.5-1.3-0.8-2.1-1v-4.4h2.1V31.1z M2.1,23.6v-2.1h55.7v2.1H2.1z"/>
</svg>
