<?xml version="1.0" encoding="utf-8"?>
<!-- Generator: Adobe Illustrator 19.0.0, SVG Export Plug-In . SVG Version: 6.00 Build 0)  -->
<svg version="1.1" id="Layer_1" xmlns="http://www.w3.org/2000/svg" xmlns:xlink="http://www.w3.org/1999/xlink" x="0px" y="0px"
	 width="60px" height="60px" viewBox="0 0 60 60" style="enable-background:new 0 0 60 60;" xml:space="preserve">
<style type="text/css">
	.st0{fill:#FFFFFF;}
</style>
<path class="st0" d="M12.7,13.8c3.8,0,6.9-3.1,6.9-6.9h0c0-3.8-3.1-6.9-6.9-6.9C8.9,0,5.8,3.1,5.8,6.9C5.8,10.7,8.9,13.8,12.7,13.8z
	 M12.7,2.3c2.5,0,4.6,2.1,4.6,4.6h0c0,2.5-2.1,4.6-4.6,4.6c-2.5,0-4.6-2.1-4.6-4.6C8.1,4.4,10.1,2.3,12.7,2.3z M41.5,15
	c0-0.3-0.1-0.6-0.3-0.8c-0.2-0.2-0.5-0.3-0.8-0.3H18.5c-0.3,0-0.6,0.1-0.8,0.3l-5,5l-5-5c-0.3-0.3-0.8-0.4-1.2-0.3l-3,1
	C1.4,15.6,0,17.6,0,19.9v15.9c0,2.8,2,5.1,4.6,5.7v17.4c0,0.3,0.1,0.6,0.3,0.8C5.2,59.9,5.5,60,5.8,60h6.9c0,0,0,0,0,0l0,0h6.9
	c0.3,0,0.6-0.1,0.8-0.3c0.2-0.2,0.3-0.5,0.3-0.8V23.1c0-1.3,1-2.3,2.3-2.3h12.7C39,20.8,41.5,18.2,41.5,15z M18.5,23.1v34.6h-4.6
	V38.1c0-0.6-0.5-1.2-1.2-1.2c-0.6,0-1.2,0.5-1.2,1.2v19.6H6.9V24.2c0-0.6-0.5-1.2-1.2-1.2c-0.6,0-1.2,0.5-1.2,1.2l0,14.8
	c-1.3-0.5-2.3-1.8-2.3-3.3V19.9c0-1.2,0.8-2.4,2-2.8l2.3-0.8l5.3,5.3c0.2,0.2,0.5,0.3,0.8,0.3c0.3,0,0.6-0.1,0.8-0.3l5.4-5.4H39
	c-0.5,1.3-1.8,2.3-3.3,2.3H23.1C20.5,18.5,18.5,20.5,18.5,23.1z M42.7,25.4c-9.6,0-17.3,7.7-17.3,17.3c0,9.6,7.7,17.3,17.3,17.3
	C52.2,60,60,52.2,60,42.7C60,33.1,52.2,25.4,42.7,25.4z M37.7,28.6c-0.6,0.7-1.2,1.6-1.7,2.6c-0.7,1.4-1.3,2.9-1.7,4.6h-4.9
	C31.1,32.4,34.1,29.8,37.7,28.6z M27.7,42.7c0-1.6,0.3-3.2,0.7-4.6h5.4c-0.2,1.5-0.3,3-0.4,4.6c0,1.6,0.1,3.1,0.4,4.6h-5.4
	C28,45.9,27.7,44.3,27.7,42.7z M29.4,49.6h4.9c0.4,1.7,1,3.3,1.7,4.6c0.5,1,1.1,1.8,1.7,2.6C34.1,55.5,31.1,53,29.4,49.6z
	 M41.5,56.9c-1.2-0.5-2.5-1.7-3.5-3.7c-0.5-1-1-2.2-1.3-3.6h4.9V56.9z M41.5,47.3h-5.4c-0.2-1.5-0.4-3-0.4-4.6
	c0-1.6,0.1-3.2,0.4-4.6h5.4V47.3z M41.5,35.8h-4.9c0.4-1.3,0.8-2.5,1.4-3.6c1-2,2.3-3.2,3.5-3.7V35.8z M56,35.8h-4.9
	c-0.4-1.7-1-3.3-1.7-4.6c-0.5-1-1.1-1.8-1.7-2.6C51.3,29.8,54.2,32.4,56,35.8z M43.8,28.5c1.2,0.5,2.5,1.7,3.5,3.7
	c0.5,1,1,2.2,1.4,3.6h-4.9V28.5z M43.8,38.1h5.4c0.2,1.4,0.4,3,0.4,4.6c0,1.6-0.1,3.2-0.4,4.6h-5.4V38.1z M43.8,56.9v-7.3h4.9
	c-0.4,1.3-0.8,2.5-1.3,3.6C46.3,55.2,45.1,56.4,43.8,56.9z M47.7,56.8c0.6-0.7,1.2-1.6,1.7-2.6c0.7-1.4,1.3-2.9,1.7-4.6H56
	C54.2,53,51.3,55.5,47.7,56.8z M51.6,47.3c0.2-1.5,0.4-3,0.4-4.6c0-1.6-0.1-3.1-0.4-4.6H57c0.5,1.5,0.7,3,0.7,4.6
	c0,1.6-0.3,3.2-0.7,4.6H51.6z"/>
</svg>
