<?xml version="1.0" encoding="utf-8"?>
<!-- Generator: Adobe Illustrator 19.0.0, SVG Export Plug-In . SVG Version: 6.00 Build 0)  -->
<svg version="1.1" id="Layer_1" xmlns="http://www.w3.org/2000/svg" xmlns:xlink="http://www.w3.org/1999/xlink" x="0px" y="0px"
	 width="90px" height="90px" viewBox="0 0 90 90" style="enable-background:new 0 0 90 90;" xml:space="preserve">
<style type="text/css">
	.st0{fill:#AFDBC1;}
	.st1{fill:#FFFFFF;}
</style>
<circle class="st0" cx="45" cy="45" r="45"/>
<g>
	<path class="st1" d="M69.9,27.5c-0.2-0.3-0.6-0.5-0.9-0.4l-48.2,8.9c-0.3,0.1-0.6,0.3-0.7,0.7c-0.1,0.3,0,0.7,0.3,0.9l8.6,6.9v14.7
		c0,0.4,0.3,0.8,0.7,0.9c0.1,0,0.2,0,0.2,0c0.2,0,0.4-0.1,0.6-0.2l0,0l7.9-6.9l6.9,9.4c0.2,0.2,0.4,0.4,0.7,0.4h0
		c0.3,0,0.6-0.2,0.7-0.4l23.2-33.9C70,28.2,70.1,27.9,69.9,27.5z M60.7,30.5L30,43.1l-7-5.6L60.7,30.5z M35.6,47.8
		c-0.1,0.1-0.2,0.2-0.3,0.3L30.7,56V44.7l28.9-11.8L35.6,47.8z M33.3,55l2.8-4.8l1.1,1.4L33.3,55z M45.9,60.4l-8.5-11.6L66,31
		L45.9,60.4z"/>
</g>
</svg>
